<mxfile host="app.diagrams.net" agent="Mozilla/5.0 (Windows NT 10.0; Win64; x64) AppleWebKit/537.36 (KHTML, like Gecko) Chrome/133.0.0.0 Safari/537.36" version="26.0.16">
  <diagram name="Page-1" id="c7488fd3-1785-93aa-aadb-54a6760d102a">
    <mxGraphModel dx="891" dy="516" grid="1" gridSize="10" guides="1" tooltips="1" connect="1" arrows="1" fold="1" page="1" pageScale="1" pageWidth="1100" pageHeight="850" background="none" math="0" shadow="0">
      <root>
        <mxCell id="0" />
        <mxCell id="1" parent="0" />
        <mxCell id="XaJHriwtchlUNvdtpuuh-1" value="&lt;font style=&quot;font-size: 10px;&quot;&gt;논리 삭제된 댓글인가?&lt;/font&gt;" style="rounded=1;whiteSpace=wrap;html=1;" vertex="1" parent="1">
          <mxGeometry x="620" y="70" width="120" height="50" as="geometry" />
        </mxCell>
        <mxCell id="XaJHriwtchlUNvdtpuuh-2" value="논리삭제된 댓글인가?" style="html=1;whiteSpace=wrap;aspect=fixed;shape=isoRectangle;" vertex="1" parent="1">
          <mxGeometry x="364" y="290" width="150" height="90" as="geometry" />
        </mxCell>
        <mxCell id="XaJHriwtchlUNvdtpuuh-3" value="" style="shape=waypoint;sketch=0;fillStyle=solid;size=6;pointerEvents=1;points=[];fillColor=none;resizable=0;rotatable=0;perimeter=centerPerimeter;snapToPoint=1;fontSize=30;spacing=2;" vertex="1" parent="1">
          <mxGeometry x="430" y="210" width="20" height="20" as="geometry" />
        </mxCell>
        <mxCell id="XaJHriwtchlUNvdtpuuh-4" value="" style="shape=waypoint;sketch=0;fillStyle=solid;size=6;pointerEvents=1;points=[];fillColor=none;resizable=0;rotatable=0;perimeter=centerPerimeter;snapToPoint=1;fontSize=30;" vertex="1" parent="1">
          <mxGeometry x="800" y="325" width="20" height="20" as="geometry" />
        </mxCell>
        <mxCell id="XaJHriwtchlUNvdtpuuh-7" value="" style="edgeStyle=elbowEdgeStyle;elbow=horizontal;endArrow=classic;html=1;curved=0;rounded=0;endSize=8;startSize=8;" edge="1" parent="1">
          <mxGeometry width="50" height="50" relative="1" as="geometry">
            <mxPoint x="170" y="94.22999999999999" as="sourcePoint" />
            <mxPoint x="270" y="94.22999999999999" as="targetPoint" />
          </mxGeometry>
        </mxCell>
        <mxCell id="XaJHriwtchlUNvdtpuuh-9" value="" style="edgeStyle=elbowEdgeStyle;elbow=horizontal;endArrow=classic;html=1;curved=0;rounded=0;endSize=8;startSize=8;exitX=0.5;exitY=0.985;exitDx=0;exitDy=0;exitPerimeter=0;" edge="1" parent="1">
          <mxGeometry width="50" height="50" relative="1" as="geometry">
            <mxPoint x="439" y="378.6500000000001" as="sourcePoint" />
            <mxPoint x="439" y="420" as="targetPoint" />
            <Array as="points">
              <mxPoint x="439" y="390" />
            </Array>
          </mxGeometry>
        </mxCell>
        <mxCell id="XaJHriwtchlUNvdtpuuh-11" value="" style="edgeStyle=elbowEdgeStyle;elbow=horizontal;endArrow=classic;html=1;curved=0;rounded=0;endSize=8;startSize=8;" edge="1" parent="1">
          <mxGeometry width="50" height="50" relative="1" as="geometry">
            <mxPoint x="514" y="334.72999999999996" as="sourcePoint" />
            <mxPoint x="810" y="830" as="targetPoint" />
            <Array as="points">
              <mxPoint x="810" y="335" />
            </Array>
          </mxGeometry>
        </mxCell>
        <mxCell id="XaJHriwtchlUNvdtpuuh-12" value="자식댓글이 존재하나?" style="html=1;whiteSpace=wrap;aspect=fixed;shape=isoRectangle;" vertex="1" parent="1">
          <mxGeometry x="364" y="418" width="150" height="90" as="geometry" />
        </mxCell>
        <mxCell id="XaJHriwtchlUNvdtpuuh-13" value="Yes" style="text;html=1;align=center;verticalAlign=middle;resizable=0;points=[];autosize=1;strokeColor=none;fillColor=none;" vertex="1" parent="1">
          <mxGeometry x="514" y="305" width="40" height="30" as="geometry" />
        </mxCell>
        <mxCell id="XaJHriwtchlUNvdtpuuh-14" value="Yes" style="text;html=1;align=center;verticalAlign=middle;resizable=0;points=[];autosize=1;strokeColor=none;fillColor=none;" vertex="1" parent="1">
          <mxGeometry x="130" y="250" width="40" height="30" as="geometry" />
        </mxCell>
        <mxCell id="XaJHriwtchlUNvdtpuuh-15" value="No" style="text;html=1;align=center;verticalAlign=middle;resizable=0;points=[];autosize=1;strokeColor=none;fillColor=none;" vertex="1" parent="1">
          <mxGeometry x="130" y="290" width="40" height="30" as="geometry" />
        </mxCell>
        <mxCell id="XaJHriwtchlUNvdtpuuh-16" value="No" style="text;html=1;align=center;verticalAlign=middle;resizable=0;points=[];autosize=1;strokeColor=none;fillColor=none;" vertex="1" parent="1">
          <mxGeometry x="439" y="380" width="40" height="30" as="geometry" />
        </mxCell>
        <mxCell id="XaJHriwtchlUNvdtpuuh-17" value="Yes" style="text;html=1;align=center;verticalAlign=middle;resizable=0;points=[];autosize=1;strokeColor=none;fillColor=none;" vertex="1" parent="1">
          <mxGeometry x="300" y="418" width="40" height="30" as="geometry" />
        </mxCell>
        <mxCell id="XaJHriwtchlUNvdtpuuh-18" value="No" style="text;html=1;align=center;verticalAlign=middle;resizable=0;points=[];autosize=1;strokeColor=none;fillColor=none;" vertex="1" parent="1">
          <mxGeometry x="439" y="506" width="40" height="30" as="geometry" />
        </mxCell>
        <mxCell id="XaJHriwtchlUNvdtpuuh-19" value="" style="edgeStyle=elbowEdgeStyle;elbow=horizontal;endArrow=classic;html=1;curved=0;rounded=0;endSize=8;startSize=8;exitX=0.5;exitY=0.985;exitDx=0;exitDy=0;exitPerimeter=0;" edge="1" parent="1">
          <mxGeometry width="50" height="50" relative="1" as="geometry">
            <mxPoint x="100" y="310" as="sourcePoint" />
            <mxPoint x="100" y="401" as="targetPoint" />
            <Array as="points">
              <mxPoint x="100" y="321" />
            </Array>
          </mxGeometry>
        </mxCell>
        <mxCell id="XaJHriwtchlUNvdtpuuh-21" value="" style="edgeStyle=elbowEdgeStyle;elbow=horizontal;endArrow=classic;html=1;curved=0;rounded=0;endSize=8;startSize=8;" edge="1" parent="1">
          <mxGeometry width="50" height="50" relative="1" as="geometry">
            <mxPoint x="513.5" y="463" as="sourcePoint" />
            <mxPoint x="610" y="463" as="targetPoint" />
            <Array as="points">
              <mxPoint x="569.5" y="460.5" />
            </Array>
          </mxGeometry>
        </mxCell>
        <mxCell id="XaJHriwtchlUNvdtpuuh-24" value="Yes" style="text;html=1;align=center;verticalAlign=middle;resizable=0;points=[];autosize=1;strokeColor=none;fillColor=none;" vertex="1" parent="1">
          <mxGeometry x="1410" y="830" width="40" height="30" as="geometry" />
        </mxCell>
        <mxCell id="XaJHriwtchlUNvdtpuuh-25" value="&lt;font&gt;논리 삭제 처리&lt;/font&gt;" style="rounded=1;whiteSpace=wrap;html=1;" vertex="1" parent="1">
          <mxGeometry x="612.5" y="434.88" width="135" height="56.25" as="geometry" />
        </mxCell>
        <mxCell id="XaJHriwtchlUNvdtpuuh-26" value="&lt;font&gt;&amp;nbsp;삭제 처리&lt;/font&gt;" style="rounded=1;whiteSpace=wrap;html=1;" vertex="1" parent="1">
          <mxGeometry x="371.5" y="548" width="135" height="56.25" as="geometry" />
        </mxCell>
        <mxCell id="XaJHriwtchlUNvdtpuuh-27" value="루트 댓글인가?" style="html=1;whiteSpace=wrap;aspect=fixed;shape=isoRectangle;" vertex="1" parent="1">
          <mxGeometry x="365" y="645" width="150" height="90" as="geometry" />
        </mxCell>
        <mxCell id="XaJHriwtchlUNvdtpuuh-29" value="No" style="text;html=1;align=center;verticalAlign=middle;resizable=0;points=[];autosize=1;strokeColor=none;fillColor=none;" vertex="1" parent="1">
          <mxGeometry x="439" y="733" width="40" height="30" as="geometry" />
        </mxCell>
        <mxCell id="XaJHriwtchlUNvdtpuuh-31" value="" style="edgeStyle=elbowEdgeStyle;elbow=horizontal;endArrow=classic;html=1;curved=0;rounded=0;endSize=8;startSize=8;exitX=0.5;exitY=0.985;exitDx=0;exitDy=0;exitPerimeter=0;" edge="1" parent="1">
          <mxGeometry width="50" height="50" relative="1" as="geometry">
            <mxPoint x="438.5" y="506.0000000000001" as="sourcePoint" />
            <mxPoint x="438.5" y="547.35" as="targetPoint" />
            <Array as="points">
              <mxPoint x="438.5" y="517.35" />
            </Array>
          </mxGeometry>
        </mxCell>
        <mxCell id="XaJHriwtchlUNvdtpuuh-32" value="" style="edgeStyle=elbowEdgeStyle;elbow=horizontal;endArrow=classic;html=1;curved=0;rounded=0;endSize=8;startSize=8;exitX=0.5;exitY=0.985;exitDx=0;exitDy=0;exitPerimeter=0;" edge="1" parent="1">
          <mxGeometry width="50" height="50" relative="1" as="geometry">
            <mxPoint x="439.66" y="605.2500000000001" as="sourcePoint" />
            <mxPoint x="439.66" y="646.6" as="targetPoint" />
            <Array as="points">
              <mxPoint x="439.66" y="616.6" />
            </Array>
          </mxGeometry>
        </mxCell>
        <mxCell id="XaJHriwtchlUNvdtpuuh-33" value="" style="edgeStyle=elbowEdgeStyle;elbow=horizontal;endArrow=classic;html=1;curved=0;rounded=0;endSize=8;startSize=8;exitX=0.5;exitY=0.985;exitDx=0;exitDy=0;exitPerimeter=0;" edge="1" parent="1">
          <mxGeometry width="50" height="50" relative="1" as="geometry">
            <mxPoint x="439.66" y="733.0000000000001" as="sourcePoint" />
            <mxPoint x="439.66" y="774.35" as="targetPoint" />
            <Array as="points">
              <mxPoint x="439.66" y="744.35" />
            </Array>
          </mxGeometry>
        </mxCell>
        <mxCell id="XaJHriwtchlUNvdtpuuh-36" value="" style="line;strokeWidth=1;html=1;perimeter=backbonePerimeter;points=[];outlineConnect=0;" vertex="1" parent="1">
          <mxGeometry x="515" y="685" width="160" height="10" as="geometry" />
        </mxCell>
        <mxCell id="XaJHriwtchlUNvdtpuuh-39" value="부모 댓글 조회" style="rounded=1;whiteSpace=wrap;html=1;" vertex="1" parent="1">
          <mxGeometry x="372.5" y="773.75" width="135" height="56.25" as="geometry" />
        </mxCell>
        <mxCell id="XaJHriwtchlUNvdtpuuh-40" value="루트 댓글인가?" style="html=1;whiteSpace=wrap;aspect=fixed;shape=isoRectangle;" vertex="1" parent="1">
          <mxGeometry x="364" y="872" width="150" height="90" as="geometry" />
        </mxCell>
        <mxCell id="XaJHriwtchlUNvdtpuuh-41" value="" style="edgeStyle=elbowEdgeStyle;elbow=horizontal;endArrow=classic;html=1;curved=0;rounded=0;endSize=8;startSize=8;exitX=0.5;exitY=0.985;exitDx=0;exitDy=0;exitPerimeter=0;" edge="1" parent="1">
          <mxGeometry width="50" height="50" relative="1" as="geometry">
            <mxPoint x="438.66" y="831.0000000000001" as="sourcePoint" />
            <mxPoint x="438.66" y="872.35" as="targetPoint" />
            <Array as="points">
              <mxPoint x="438.66" y="842.35" />
            </Array>
          </mxGeometry>
        </mxCell>
      </root>
    </mxGraphModel>
  </diagram>
</mxfile>
